<svg xmlns="http://www.w3.org/2000/svg" version="1.1" x="0" y="0" viewBox="0 0 60 60" enable-background="new 0 0 60 60" xml:space="preserve"><circle fill="#FF6479" cx="30" cy="30" r="30"/><path fill="#AF2D48" d="M34.9 59.6c10.6-1.7 19.3-9 23.1-18.8L43.1 26 34 27.9 24 17.8l-5.5 3.7L23 26l-4.9 16.8L34.9 59.6z"/><rect x="18.1" y="25" fill="#FFFFFF" width="5.9" height="17.8"/><path fill="#FFFFFF" d="M21.1 22.5L21.1 22.5c-2 0-3.3-1.4-3.3-3.1 0-1.7 1.3-3.1 3.3-3.1 2 0 3.3 1.3 3.3 3.1C24.4 21.2 23.1 22.5 21.1 22.5zM45.4 42.7h-5.9v-9.5c0-2.4-0.9-4-3-4 -1.6 0-2.6 1.1-3 2.2 -0.2 0.4-0.2 0.9-0.2 1.4v9.9h-5.9c0 0 0.1-16.1 0-17.8h5.9v2.5c0.8-1.2 2.2-2.9 5.3-2.9 3.9 0 6.8 2.5 6.8 8V42.7z"/></svg>