<?xml version="1.0" encoding="utf-8"?>
<!-- Generator: Adobe Illustrator 19.1.0, SVG Export Plug-In . SVG Version: 6.00 Build 0)  -->
<svg version="1.1" xmlns="http://www.w3.org/2000/svg" xmlns:xlink="http://www.w3.org/1999/xlink" x="0px" y="0px"
	 viewBox="0 0 60 60" style="enable-background:new 0 0 60 60;" xml:space="preserve">
<style type="text/css">
	.st0{fill:#FFFFFF;}
	.st1{fill:#BDCCD4;}
	.st2{fill:#A2B4CA;}
	.st3{fill:#FF6479;}
	.st4{fill:#AF2D48;}
	.st5{fill:#F7FFFF;}
</style>
<g id="Layer_1">
</g>
<g id="burger_x5F_icon">
</g>
<g id="tiles_x5F_icon">
</g>
<g id="link_x5F_icon">
</g>
<g id="close_x5F_icon_1_">
</g>
<g id="next_x5F_icon">
</g>
<g id="prev_x5F_icon">
</g>
<g id="seemore_x5F_icon">
	<circle id="circle_4_" class="st3" cx="30" cy="30" r="30"/>
	<path id="shadow_3_" class="st4" d="M59.2,36.7L46.5,24c-8.1-7.3-19.4-7.7-26-2.1c-6.6,5.6-5.8,15-5.7,16l21.4,21.4
		C47.6,56.9,56.6,48.1,59.2,36.7z"/>
	<path id="eye" class="st0" d="M30.1,17.8c-9-0.1-17.2,4.9-21.2,13c3.6,8.3,11.9,13.7,21,13.8c9,0,17.3-5.3,21-13.5
		C46.9,23.1,38.9,17.9,30.1,17.8z M29.9,41.5c-5.8,0-10.5-4.7-10.5-10.5s4.7-10.5,10.5-10.5s10.5,4.7,10.5,10.5S35.7,41.5,29.9,41.5
		z M36.2,31.1c0,3.5-2.8,6.3-6.3,6.3s-6.3-2.8-6.3-6.3s2.8-6.3,6.3-6.3S36.2,27.6,36.2,31.1z"/>
</g>
<g id="cp_x5F_icon">
</g>
<g id="in_x5F_icon">
</g>
<g id="fb_x5F_icon">
</g>
</svg>
