<?xml version="1.0" encoding="utf-8"?>
<!-- Generator: Adobe Illustrator 19.1.0, SVG Export Plug-In . SVG Version: 6.00 Build 0)  -->
<svg version="1.1" xmlns="http://www.w3.org/2000/svg" xmlns:xlink="http://www.w3.org/1999/xlink" x="0px" y="0px"
	 viewBox="0 0 60 60" enable-background="new 0 0 60 60" xml:space="preserve">
<g id="Layer_1">
</g>
<g id="burger_x5F_icon">
</g>
<g id="tiles_x5F_icon">
</g>
<g id="link_x5F_icon">
	<circle id="circle_7_" fill="#FF6479" cx="30" cy="30" r="30"/>
	<path id="shaddow_6_" fill="#AF2D48" d="M30.8,60C46.7,59.5,59.5,46.8,60,31L45.4,16.4l-5.7,3.9l-2.5-2.5c-2.8,1.2-7.6,3.5-12,8.1
		c-4.1,4.2-6.2,8.5-7.4,11.3c1,1,2.1,2.1,3.1,3.1l-4.5,5.3L30.8,60z"/>
	<g id="link">
		<g>
			<path fill="#FFFFFF" d="M39,27.6c-0.2,0.2,0,1-0.3,1.4L29,38.7c-0.4,0.4-1.2,0.1-1.4,0.3l-4,4c2.4,1.9,6.6,1.9,9.1-0.6l9.7-9.7
				c2.5-2.5,2.5-6.7,0.6-9.1L39,27.6z M28.1,18.3L18.4,28c-2.5,2.5-3,6.2-0.6,9.1l4-4c-0.4-0.7,0-1,0.3-1.4l9.7-9.7
				c0.4-0.4,0.7-0.7,1.4-0.3l4-4C34.3,15.3,30.6,15.8,28.1,18.3z"/>
			<path fill="#FFFFFF" d="M39,27.6c-0.2,0.2,0,1-0.3,1.4L29,38.7c-0.4,0.4-1.2,0.1-1.4,0.3l-4,4c2.4,1.9,6.6,1.9,9.1-0.6l9.7-9.7
				c2.5-2.5,2.5-6.7,0.6-9.1L39,27.6z M28.1,18.3L18.4,28c-2.5,2.5-3,6.2-0.6,9.1l4-4c-0.4-0.7,0-1,0.3-1.4l9.7-9.7
				c0.4-0.4,0.7-0.7,1.4-0.3l4-4C34.3,15.3,30.6,15.8,28.1,18.3z"/>
		</g>
		<g>
			<path fill="#FFFFFF" d="M44.1,14.9l1.5,1.5c0.7,0.7,0.7,1.8,0,2.5L35.4,29c-0.7,0.7-1.9,0.7-2.6,0l-1.5-1.5
				C30.7,27,31,26,31.7,25.3l10.2-10.2C42.6,14.5,43.4,14.2,44.1,14.9z"/>
		</g>
		<g>
			<path fill="#FFFFFF" d="M27.7,31.3l1.5,1.5c0.7,0.7,0.6,1.9,0,2.6L18.9,45.6c-0.7,0.7-1.8,0.6-2.5,0l-1.5-1.5
				c-0.7-0.7-0.4-1.5,0.2-2.2l10.2-10.2C26,31,27,30.7,27.7,31.3z"/>
		</g>
	</g>
</g>
<g id="close_x5F_icon_1_">
</g>
<g id="next_x5F_icon">
</g>
<g id="prev_x5F_icon">
</g>
<g id="seemore_x5F_icon">
</g>
<g id="cp_x5F_icon">
</g>
<g id="in_x5F_icon">
</g>
<g id="fb_x5F_icon">
</g>
</svg>
