<svg xmlns="http://www.w3.org/2000/svg" version="1.1" x="0" y="0" viewBox="0 0 60 60" enable-background="new 0 0 60 60" xml:space="preserve"><circle fill="#FF6479" cx="30" cy="30" r="30"/><path fill="#AF2D48" d="M59.8 33.3L48.1 21.8l-16.4-1.2 -2.9-2.9 -11.4 6.2 -2.9 14.3 21.3 21.3C48.5 56.9 58.4 46.4 59.8 33.3z"/><path fill="#FFFFFF" d="M29.9 30.1l0-3.3c0-1.6 0.2-2.9 0.5-3.9 0.3-1 0.9-2 1.6-2.8 0.9-1 1.9-1.7 3.2-2.3 1.3-0.6 2.6-0.8 4-0.8 2.5 0 5.2 0.8 6.9 2.5 1.7 1.7 2.5 3.8 2.5 6.3 0 2.4-0.8 4.4-2.3 5.9 -1.4 1.4-3.5 2.1-6.3 2.1l-1.4-0.1c0 0 0.3-2.2 0.3-3 0-0.8 0-3.4 0-3.4 1.5 0 2.2-0.6 2.2-1.7 0-1-1-1.7-2.3-1.5 -1.1 0-1.7 0.7-1.7 2.1 0 0 0 0.9 0 4.6 0 3.7-1.7 6.7-4 8.9 -2.2 2.2-5.2 3.2-8.8 3.2 -3.7 0-6.7-1.2-9.2-3.7 -2.5-2.5-3.7-5.5-3.7-9.1 0-3.7 1.3-6.7 3.8-9.2 2.5-2.5 5.6-3.7 9.3-3.7 1.5 0 2.8 0.2 4.1 0.6l-2.3 7c-0.6-0.2-1.2-0.3-1.9-0.3 -1.6 0-2.9 0.5-3.9 1.6 -1 1.1-1.5 2.5-1.5 4.1 0 1.6 0.5 2.9 1.5 4 1 1 2.3 1.6 3.8 1.6 1.5 0 2.9-0.5 3.8-1.4C29.2 33.1 29.8 31.8 29.9 30.1L29.9 30.1z"/></svg>