<svg xmlns="http://www.w3.org/2000/svg" version="1.1" x="0" y="0" viewBox="0 0 60 60" enable-background="new 0 0 60 60" xml:space="preserve"><circle fill="#FF6479" cx="30" cy="30" r="30"/><path class="shadow" fill="#AF2D48" d="M30.8 60C46.7 59.5 59.5 46.8 60 31L45.4 16.4l-5.7 3.9 -2.5-2.5c-2.8 1.2-7.6 3.5-12 8.1 -4.1 4.2-6.2 8.5-7.4 11.3 1 1 2.1 2.1 3.1 3.1l-4.5 5.3L30.8 60z"/><path fill="#FFFFFF" d="M39 27.6c-0.2 0.2 0 1-0.3 1.4L29 38.7c-0.4 0.4-1.2 0.1-1.4 0.3l-4 4c2.4 1.9 6.6 1.9 9.1-0.6l9.7-9.7c2.5-2.5 2.5-6.7 0.6-9.1L39 27.6zM28.1 18.3L18.4 28c-2.5 2.5-3 6.2-0.6 9.1l4-4c-0.4-0.7 0-1 0.3-1.4l9.7-9.7c0.4-0.4 0.7-0.7 1.4-0.3l4-4C34.3 15.3 30.6 15.8 28.1 18.3z"/><path fill="#FFFFFF" d="M39 27.6c-0.2 0.2 0 1-0.3 1.4L29 38.7c-0.4 0.4-1.2 0.1-1.4 0.3l-4 4c2.4 1.9 6.6 1.9 9.1-0.6l9.7-9.7c2.5-2.5 2.5-6.7 0.6-9.1L39 27.6zM28.1 18.3L18.4 28c-2.5 2.5-3 6.2-0.6 9.1l4-4c-0.4-0.7 0-1 0.3-1.4l9.7-9.7c0.4-0.4 0.7-0.7 1.4-0.3l4-4C34.3 15.3 30.6 15.8 28.1 18.3z"/><path fill="#FFFFFF" d="M44.1 14.9l1.5 1.5c0.7 0.7 0.7 1.8 0 2.5L35.4 29c-0.7 0.7-1.9 0.7-2.6 0l-1.5-1.5C30.7 27 31 26 31.7 25.3l10.2-10.2C42.6 14.5 43.4 14.2 44.1 14.9z"/><path fill="#FFFFFF" d="M27.7 31.3l1.5 1.5c0.7 0.7 0.6 1.9 0 2.6L18.9 45.6c-0.7 0.7-1.8 0.6-2.5 0l-1.5-1.5c-0.7-0.7-0.4-1.5 0.2-2.2l10.2-10.2C26 31 27 30.7 27.7 31.3z"/></svg>