<?xml version="1.0" encoding="utf-8"?>
<!-- Generator: Adobe Illustrator 19.1.0, SVG Export Plug-In . SVG Version: 6.00 Build 0)  -->
<svg version="1.1" xmlns="http://www.w3.org/2000/svg" xmlns:xlink="http://www.w3.org/1999/xlink" x="0px" y="0px"
	 viewBox="0 0 60 60" enable-background="new 0 0 60 60" xml:space="preserve">
<g id="Layer_1">
</g>
<g id="burger_x5F_icon">
</g>
<g id="tiles_x5F_icon">
</g>
<g id="link_x5F_icon">
</g>
<g id="close_x5F_icon_1_">
</g>
<g id="next_x5F_icon">
</g>
<g id="prev_x5F_icon">
</g>
<g id="seemore_x5F_icon">
</g>
<g id="cp_x5F_icon">
</g>
<g id="in_x5F_icon">
</g>
<g id="fb_x5F_icon">
	<circle id="circle" fill="#FF6479" cx="30" cy="30" r="30"/>
	<path id="shaddow" fill="#AF2D48" d="M39.7,58.4c9.9-3.4,17.5-11.8,19.7-22.3L37.5,14.2L30,18.8V26h-6.8l0,3.5l3.5,3.6l-0.5,11.8
		L39.7,58.4z"/>
	<path id="logo" fill="#FFFFFF" d="M37,29.6h-4.3c0,6.9,0,15.4,0,15.4h-6.4c0,0,0-8.4,0-15.4h-3v-5.4h3v-3.5c0-2.5,1.2-6.4,6.4-6.4
		l4.7,0v5.3c0,0-2.9,0-3.4,0c-0.6,0-1.4,0.3-1.4,1.5v3.2h4.9L37,29.6z"/>
</g>
</svg>
